<svg version="1.0" xmlns="http://www.w3.org/2000/svg"
 width="250.000000pt" height="250.000000pt" viewBox="0 0 250.000000 250.000000"
 preserveAspectRatio="xMidYMid meet" id="logo-img">
    <g transform="translate(0.000000,250.000000) scale(0.100000,-0.100000)"
    fill="#000000" stroke="none">
    <path d="M1300 2288 c-105 -71 -57 -223 72 -223 45 0 53 4 84 37 28 31 34 45
    34 83 0 98 -110 157 -190 103z"/>
    <path d="M1151 1883 c-30 -15 -46 -42 -146 -247 -62 -127 -231 -472 -375 -766
    -176 -361 -261 -546 -262 -568 0 -43 26 -81 65 -95 24 -9 226 -11 789 -7 745
    5 757 5 784 26 53 39 51 126 -4 162 -24 15 -85 17 -692 22 l-667 5 325 665
    c178 366 326 681 329 701 6 44 -9 74 -50 99 -39 24 -52 24 -96 3z"/>
    </g>
</svg>
